<?xml version="1.0" encoding="UTF-8" standalone="no"?>
<!-- Created with Inkscape (http://www.inkscape.org/) -->

<svg
   version="1.1"
   id="svg2"
   xml:space="preserve"
   width="135mm"
   height="135mm"
   viewBox="0 0 510.23618 510.23619"
   sodipodi:docname="zynthian-new_top.svg"
   inkscape:version="1.2.1 (9c6d41e410, 2022-07-14)"
   xmlns:inkscape="http://www.inkscape.org/namespaces/inkscape"
   xmlns:sodipodi="http://sodipodi.sourceforge.net/DTD/sodipodi-0.dtd"
   xmlns="http://www.w3.org/2000/svg"
   xmlns:svg="http://www.w3.org/2000/svg"
   xmlns:rdf="http://www.w3.org/1999/02/22-rdf-syntax-ns#"
   xmlns:cc="http://creativecommons.org/ns#"
   xmlns:dc="http://purl.org/dc/elements/1.1/"><metadata
     id="metadata8"><rdf:RDF><cc:Work
         rdf:about=""><dc:format>image/svg+xml</dc:format><dc:type
           rdf:resource="http://purl.org/dc/dcmitype/StillImage" /></cc:Work></rdf:RDF></metadata><defs
     id="defs6"><inkscape:path-effect
       effect="powerclip"
       id="path-effect3498"
       is_visible="true"
       lpeversion="1"
       inverse="true"
       flatten="false"
       hide_clip="false"
       message="Use fill-rule evenodd on &lt;b&gt;fill and stroke&lt;/b&gt; dialog if no flatten result after convert clip to paths." /><clipPath
       id="clipPath895"
       clipPathUnits="userSpaceOnUse"><path
         inkscape:connector-curvature="0"
         id="path893"
         d="M 0,841.89 H 1190.55 V 0 H 0 Z" /></clipPath><clipPath
       id="clipPath885"
       clipPathUnits="userSpaceOnUse"><path
         inkscape:connector-curvature="0"
         id="path883"
         d="M 0,841.89 H 1190.55 V 0 H 0 Z" /></clipPath><clipPath
       clipPathUnits="userSpaceOnUse"
       id="clipPath3494"><path
         id="lpe_path-effect3498"
         style="display:inline;stroke:#000000;stroke-width:2.26772"
         class="powerclip"
         d="M 33.010505,21.423976 H 609.69155 V 416.02873 H 33.010505 Z M 292.4052,20.076827 V 38.54916 h 58.06411 V 20.076827 Z" /></clipPath></defs><sodipodi:namedview
     pagecolor="#ffffff"
     bordercolor="#666666"
     borderopacity="1"
     objecttolerance="10"
     gridtolerance="10"
     guidetolerance="10"
     inkscape:pageopacity="0"
     inkscape:pageshadow="2"
     inkscape:window-width="3840"
     inkscape:window-height="2089"
     id="namedview4"
     showgrid="false"
     inkscape:zoom="3.0719084"
     inkscape:cx="60.060385"
     inkscape:cy="278.00308"
     inkscape:window-x="-8"
     inkscape:window-y="-8"
     inkscape:window-maximized="1"
     inkscape:current-layer="layer3"
     inkscape:measure-start="243.952,398.808"
     inkscape:measure-end="354.64,338.61"
     showguides="false"
     inkscape:guide-bbox="true"
     inkscape:showpageshadow="2"
     inkscape:pagecheckerboard="0"
     inkscape:deskcolor="#d1d1d1"
     inkscape:lockguides="true"
     inkscape:document-units="mm"><sodipodi:guide
       position="181,612.99999"
       orientation="1,0"
       id="guide868"
       inkscape:locked="true" /><sodipodi:guide
       position="229,598"
       orientation="-0.70710678,0.70710678"
       id="guide870"
       inkscape:locked="true" /><sodipodi:guide
       position="904.30466,215.94355"
       orientation="0,1"
       id="guide872"
       inkscape:locked="true" /><sodipodi:guide
       position="910.90818,602.85986"
       orientation="0,-1"
       id="guide828"
       inkscape:locked="true" /><sodipodi:guide
       position="904.46688,601.21363"
       orientation="1,0"
       id="guide830"
       inkscape:locked="true" /><sodipodi:guide
       position="274.79936,594.31934"
       orientation="1,0"
       id="guide832"
       inkscape:locked="true" /><sodipodi:guide
       position="596.49997,526.70136"
       orientation="1,0"
       id="guide1221"
       inkscape:locked="true" /><sodipodi:guide
       position="492.99998,350.20136"
       orientation="1,0"
       id="guide1273"
       inkscape:locked="true" /><sodipodi:guide
       position="694.49997,315.20137"
       orientation="1,0"
       id="guide1275"
       inkscape:locked="true" /><sodipodi:guide
       position="713.99997,258.70137"
       orientation="0,-1"
       id="guide1343"
       inkscape:locked="true" /><sodipodi:guide
       position="694.49997,516.20136"
       orientation="0,-1"
       id="guide2175"
       inkscape:locked="true" /><sodipodi:guide
       position="769.99997,387.20136"
       orientation="1,0"
       id="guide2177"
       inkscape:locked="true" /><sodipodi:guide
       position="816.49996,312.20137"
       orientation="0,-1"
       id="guide2179"
       inkscape:locked="true" /><sodipodi:guide
       position="409.41481,426.71294"
       orientation="1,0"
       id="guide2523"
       inkscape:locked="true" /></sodipodi:namedview><g
     inkscape:groupmode="layer"
     id="layer3"
     inkscape:label="All"
     style="display:inline"
     transform="translate(-0.24312594,-0.16583654)"><path
       id="path5029"
       style="display:inline;fill:none;stroke:#000000;stroke-width:2.04406"
       inkscape:label="border"
       d="m 279.24055,63.970566 193.01222,1e-6 c 6.80075,0 12.2758,6.746662 12.2758,15.126954 V 431.47033 c 0,8.38027 -5.47505,15.12696 -12.2758,15.12696 l -22.1114,-10e-6 m -38.03016,0 -79.85357,10e-6 m -37.1094,0 h -82.15545 m -36.18866,0 -83.996921,1e-5 m -34.347179,10e-6 -19.990348,-2e-5 c -6.800761,-10e-6 -12.275801,-6.74669 -12.275801,-15.12696 V 79.097521 c 0,-8.380292 5.47504,-15.126954 12.275801,-15.126954 v 0 l 193.403938,-1e-6"
       sodipodi:nodetypes="cssssccccccccsssscc" /><g
       id="g2615"
       inkscape:label="encoders"
       transform="matrix(0.99999731,0,0,1,-69.709466,65.098482)"><path
         d="m 431.40866,489.12072 v -10 h 2 v 10 z m 1,7 c -2.23333,0 -4.125,-0.775 -5.675,-2.325 -1.55,-1.55 -2.325,-3.44167 -2.325,-5.675 0,-1.31667 0.30417,-2.55 0.9125,-3.7 0.60833,-1.15 1.45417,-2.1 2.5375,-2.85 l 1.45,1.45 c -0.9,0.53333 -1.60833,1.25417 -2.125,2.1625 -0.51667,0.90833 -0.775,1.8875 -0.775,2.9375 0,1.66667 0.58333,3.08333 1.75,4.25 1.16667,1.16667 2.58333,1.75 4.25,1.75 1.66667,0 3.08333,-0.58333 4.25,-1.75 1.16667,-1.16667 1.75,-2.58333 1.75,-4.25 0,-1.05 -0.25833,-2.02917 -0.775,-2.9375 -0.51667,-0.90833 -1.225,-1.62917 -2.125,-2.1625 l 1.45,-1.45 c 1.08333,0.75 1.92917,1.7 2.5375,2.85 0.60833,1.15 0.9125,2.38333 0.9125,3.7 0,2.23333 -0.775,4.125 -2.325,5.675 -1.55,1.55 -3.44167,2.325 -5.675,2.325 z"
         id="path2428"
         style="display:inline;stroke-width:0.025"
         sodipodi:nodetypes="cccccssssccsssssssccssss"
         inkscape:label="power"
         transform="matrix(1.0000026,0,0,0.99999996,69.709654,-65.098482)" /><path
         d="m 441.40866,406.60488 -4.35,6.15 q -0.275,0.4 -0.7125,0.625 -0.4375,0.225 -0.9375,0.225 h -10 q -0.825,0 -1.4125,-0.5875 -0.5875,-0.5875 -0.5875,-1.4125 v -10 q 0,-0.825 0.5875,-1.4125 0.5875,-0.5875 1.4125,-0.5875 h 10 q 0.5,0 0.9375,0.225 0.4375,0.225 0.7125,0.625 z m -2.45,0 -3.55,-5 h -10 v 10 h 10 z m -13.55,0 v 5 -10 z"
         id="path2010"
         style="display:inline;stroke-width:0.025"
         inkscape:label="right"
         transform="matrix(1.0000026,0,0,0.99999996,69.709654,-65.098482)" /><path
         d="m 306.81068,493.12072 q -2.3,0 -3.9,-1.6 -1.6,-1.6 -1.6,-3.9 0,-2.3 1.6,-3.9 1.6,-1.6 3.9,-1.6 0.925,0 1.775,0.325 0.85,0.325 1.525,0.925 l 1.7,1.55 -1.5,1.35 -1.55,-1.4 q -0.4,-0.35 -0.9,-0.55 -0.5,-0.2 -1.05,-0.2 -1.45,0 -2.475,1.025 -1.025,1.025 -1.025,2.475 0,1.45 1.025,2.475 1.025,1.025 2.475,1.025 0.55,0 1.05,-0.2 0.5,-0.2 0.9,-0.55 l 7.75,-7 q 0.675,-0.6 1.525,-0.925 0.85,-0.325 1.775,-0.325 2.3,0 3.9,1.6 1.6,1.6 1.6,3.9 0,2.3 -1.6,3.9 -1.6,1.6 -3.9,1.6 -0.925,0 -1.775,-0.325 -0.85,-0.325 -1.525,-0.925 l -1.7,-1.55 1.5,-1.35 1.55,1.4 q 0.4,0.35 0.9,0.55 0.5,0.2 1.05,0.2 1.45,0 2.475,-1.025 1.025,-1.025 1.025,-2.475 0,-1.45 -1.025,-2.475 -1.025,-1.025 -2.475,-1.025 -0.55,0 -1.05,0.2 -0.5,0.2 -0.9,0.55 l -7.75,7 q -0.675,0.6 -1.525,0.925 -0.85,0.325 -1.775,0.325 z"
         id="path2650"
         style="display:inline;stroke-width:0.025"
         inkscape:label="loop"
         transform="matrix(1.0000026,0,0,0.99999996,69.709654,-65.098482)" /><path
         d="m 67.902273,494.62072 h 3 v -6 h 6 v 6 h 3 v -9 l -6,-4.5 -6,4.5 z m -2,2 v -12 l 8,-6 8,6 v 12 h -7 v -6 h -2 v 6 z m 8,-8.75 z"
         id="path3223"
         style="display:inline;stroke-width:0.025"
         inkscape:label="home"
         transform="matrix(1.0000026,0,0,0.99999996,69.709654,-65.098482)" /><path
         d="m 64.902273,406.6049 4.35,-6.15 q 0.275,-0.4 0.7125,-0.625 0.4375,-0.225 0.9375,-0.225 h 10 q 0.825,0 1.4125,0.5875 0.5875,0.5875 0.5875,1.4125 v 10 q 0,0.825 -0.5875,1.4125 -0.5875,0.5875 -1.4125,0.5875 h -10 q -0.5,0 -0.9375,-0.225 -0.4375,-0.225 -0.7125,-0.625 z m 2.45,0 3.55,5 h 10 v -10 h -10 z m 13.55,0 v -5 10 z"
         id="path2010-2"
         style="display:inline;stroke-width:0.025"
         inkscape:label="left"
         transform="matrix(1.0000026,0,0,0.99999996,69.709654,-65.098482)" /></g><g
       inkscape:groupmode="layer"
       id="layer1"
       inkscape:label="zynthian"
       style="display:inline"
       transform="translate(0.24312594,0.16583654)"><path
         d="m 276.58229,94.705839 h -42.92865 c -3.88129,0 -7.02574,-3.71127 -7.02574,-8.2931 V 64.834912 h 6.94897 c 1.16218,0 1.2057,0.761347 1.2057,1.930066 v 5.842386 c 0,5.842384 6.9284,6.553567 6.9284,-0.05098 V 58.890583 c 0,-4.470586 4.0458,-4.064427 4.0458,0 V 80.17633 c 0,6.604949 7.40309,7.011109 7.40309,0 V 52.286448 c 0,-2.285659 1.95829,-2.387604 1.95829,-2.387604 0,0 1.95794,0.101952 1.95794,2.387604 V 80.17633 c 0,7.011109 7.40274,6.604949 7.40274,0 V 58.890583 c 0,-4.064427 4.04547,-4.470586 4.04547,0 v 13.665808 c 0,6.60454 6.92943,5.893357 6.92943,0.05098 v -5.842386 c 0,-1.168719 0.0429,-1.930065 1.20467,-1.930065 h 6.94963 v 21.577829 c 0,4.58183 -3.14409,8.29309 -7.02574,8.29309 M 233.65364,38.355664 h 42.92865 c 3.88165,0 7.02574,3.713284 7.02574,8.294713 v 16.05058 h -6.38997 c -2.9265,0 -3.57218,1.219288 -3.57218,4.826177 v 5.1312 c 0,3.14976 -3.35727,3.504947 -3.35727,0 V 58.83961 c 0,-7.213778 -7.66047,-6.959727 -7.66047,0 0,4.724638 0.0861,18.187366 0.0861,21.235584 0,3.911515 -3.83023,4.216535 -3.83023,0.05056 V 52.489527 c 0,-3.022732 -1.70024,-4.724639 -3.76578,-4.711287 -2.06627,-0.01335 -3.76648,1.688555 -3.76648,4.711287 v 27.636235 c 0,4.165967 -3.8299,3.860947 -3.8299,-0.05056 0,-3.048219 0.0858,-16.510947 0.0858,-21.235583 0,-6.959729 -7.6608,-7.21378 -7.6608,0 v 13.818723 c 0,3.504945 -3.35694,3.149759 -3.35694,0 V 67.52714 c 0,-3.606888 -0.64568,-4.826176 -3.57215,-4.826176 h -6.38967 V 46.650381 c 0,-4.581431 3.14445,-8.294715 7.02574,-8.294715 m 43.11133,-2.061137 h -43.29405 c -4.7422,0 -8.58923,4.538953 -8.58923,10.138208 v 40.195622 c 0,5.59966 3.84703,10.13861 8.58923,10.13861 h 43.29398 c 4.7429,0 8.58923,-4.53895 8.58923,-10.13861 V 46.432735 c 0,-5.599256 -3.84633,-10.138208 -8.58923,-10.138208"
         style="display:inline;fill:#000000;fill-opacity:1;fill-rule:nonzero;stroke:none;stroke-width:0.37235;stroke-opacity:1"
         id="path899-7"
         inkscape:connector-curvature="0"
         inkscape:label="zynthian-logo" /></g><path
       d="m 197.71274,492.52072 1.4,-1.4 q 0.15,-0.15 0.15,-0.35 0,-0.2 -0.15,-0.35 l -3.4,-3.425 q 0.1,-0.275 0.15,-0.55 0.05,-0.275 0.05,-0.625 0,-1.425 -1.0125,-2.4375 -1.0125,-1.0125 -2.4375,-1.0125 -0.425,0 -0.85,0.1125 -0.425,0.1125 -0.825,0.3125 l 2.35,2.35 -1.4,1.4 -2.35,-2.35 q -0.2,0.4 -0.3125,0.825 -0.1125,0.425 -0.1125,0.85 0,1.425 1.0125,2.4375 1.0125,1.0125 2.4375,1.0125 0.325,0 0.6125,-0.05 0.2875,-0.05 0.5625,-0.15 l 3.425,3.4 q 0.15,0.15 0.35,0.15 0.2,0 0.35,-0.15 z m -3.5,5.1 q -2.075,0 -3.9,-0.7875 -1.825,-0.7875 -3.175,-2.1375 -1.35,-1.35 -2.1375,-3.175 -0.7875,-1.825 -0.7875,-3.9 0,-2.075 0.7875,-3.9 0.7875,-1.825 2.1375,-3.175 1.35,-1.35 3.175,-2.1375 1.825,-0.7875 3.9,-0.7875 2.075,0 3.9,0.7875 1.825,0.7875 3.175,2.1375 1.35,1.35 2.1375,3.175 0.7875,1.825 0.7875,3.9 0,2.075 -0.7875,3.9 -0.7875,1.825 -2.1375,3.175 -1.35,1.35 -3.175,2.1375 -1.825,0.7875 -3.9,0.7875 z m 0,-2 q 3.35,0 5.675,-2.325 2.325,-2.325 2.325,-5.675 0,-3.35 -2.325,-5.675 -2.325,-2.325 -5.675,-2.325 -3.35,0 -5.675,2.325 -2.325,2.325 -2.325,5.675 0,3.35 2.325,5.675 2.325,2.325 5.675,2.325 z m 0,-8 z"
       id="path1590"
       style="fill:#000000;fill-opacity:1;stroke-width:0.025"
       inkscape:label="settings" /></g></svg>
