<?xml version="1.0" encoding="UTF-8" standalone="no"?>
<!-- Created with Inkscape (http://www.inkscape.org/) -->

<svg
   version="1.1"
   id="svg2"
   xml:space="preserve"
   width="160mm"
   height="135mm"
   viewBox="0 0 604.72436 510.23619"
   sodipodi:docname="zynthian-new-v2.svg"
   inkscape:version="1.2.1 (9c6d41e410, 2022-07-14)"
   xmlns:inkscape="http://www.inkscape.org/namespaces/inkscape"
   xmlns:sodipodi="http://sodipodi.sourceforge.net/DTD/sodipodi-0.dtd"
   xmlns="http://www.w3.org/2000/svg"
   xmlns:svg="http://www.w3.org/2000/svg"
   xmlns:rdf="http://www.w3.org/1999/02/22-rdf-syntax-ns#"
   xmlns:cc="http://creativecommons.org/ns#"
   xmlns:dc="http://purl.org/dc/elements/1.1/"><metadata
     id="metadata8"><rdf:RDF><cc:Work
         rdf:about=""><dc:format>image/svg+xml</dc:format><dc:type
           rdf:resource="http://purl.org/dc/dcmitype/StillImage" /></cc:Work></rdf:RDF></metadata><defs
     id="defs6"><inkscape:path-effect
       effect="powerstroke"
       id="path-effect1085"
       is_visible="true"
       lpeversion="1"
       offset_points="0.2,4.5124698 | 9.5,4.5124698 | 18.8,4.5124698"
       not_jump="false"
       sort_points="true"
       interpolator_type="CubicBezierFit"
       interpolator_beta="0.2"
       start_linecap_type="zerowidth"
       linejoin_type="round"
       miter_limit="4"
       scale_width="0.2"
       end_linecap_type="zerowidth" /><inkscape:path-effect
       effect="powerclip"
       id="path-effect3498"
       is_visible="true"
       lpeversion="1"
       inverse="true"
       flatten="false"
       hide_clip="false"
       message="Use fill-rule evenodd on &lt;b&gt;fill and stroke&lt;/b&gt; dialog if no flatten result after convert clip to paths." /><clipPath
       id="clipPath895"
       clipPathUnits="userSpaceOnUse"><path
         inkscape:connector-curvature="0"
         id="path893"
         d="M 0,841.89 H 1190.55 V 0 H 0 Z" /></clipPath><clipPath
       id="clipPath885"
       clipPathUnits="userSpaceOnUse"><path
         inkscape:connector-curvature="0"
         id="path883"
         d="M 0,841.89 H 1190.55 V 0 H 0 Z" /></clipPath><clipPath
       clipPathUnits="userSpaceOnUse"
       id="clipPath3494"><path
         id="lpe_path-effect3498"
         style="display:inline;stroke:#000000;stroke-width:2.26772"
         class="powerclip"
         d="M 33.010505,21.423976 H 609.69155 V 416.02873 H 33.010505 Z M 292.4052,20.076827 V 38.54916 h 58.06411 V 20.076827 Z" /></clipPath><inkscape:path-effect
       effect="fill_between_many"
       method="bsplinespiro"
       linkedpaths="#path1181,0,1"
       id="path-effect1087" /></defs><sodipodi:namedview
     pagecolor="#ffffff"
     bordercolor="#666666"
     borderopacity="1"
     objecttolerance="10"
     gridtolerance="10"
     guidetolerance="10"
     inkscape:pageopacity="0"
     inkscape:pageshadow="2"
     inkscape:window-width="3840"
     inkscape:window-height="2089"
     id="namedview4"
     showgrid="false"
     inkscape:zoom="0.85051773"
     inkscape:cx="-647.8407"
     inkscape:cy="263.369"
     inkscape:window-x="-8"
     inkscape:window-y="-8"
     inkscape:window-maximized="1"
     inkscape:current-layer="layer1"
     inkscape:measure-start="243.952,398.808"
     inkscape:measure-end="354.64,338.61"
     showguides="false"
     inkscape:guide-bbox="true"
     inkscape:showpageshadow="2"
     inkscape:pagecheckerboard="0"
     inkscape:deskcolor="#d1d1d1"
     inkscape:lockguides="true"
     inkscape:document-units="mm"><sodipodi:guide
       position="181,612.99999"
       orientation="1,0"
       id="guide868"
       inkscape:locked="true" /><sodipodi:guide
       position="229,598"
       orientation="-0.70710678,0.70710678"
       id="guide870"
       inkscape:locked="true" /><sodipodi:guide
       position="904.30466,215.94355"
       orientation="0,1"
       id="guide872"
       inkscape:locked="true" /><sodipodi:guide
       position="910.90818,602.85986"
       orientation="0,-1"
       id="guide828"
       inkscape:locked="true" /><sodipodi:guide
       position="904.46688,601.21363"
       orientation="1,0"
       id="guide830"
       inkscape:locked="true" /><sodipodi:guide
       position="274.79936,594.31934"
       orientation="1,0"
       id="guide832"
       inkscape:locked="true" /><sodipodi:guide
       position="596.49997,526.70136"
       orientation="1,0"
       id="guide1221"
       inkscape:locked="true" /><sodipodi:guide
       position="492.99998,350.20136"
       orientation="1,0"
       id="guide1273"
       inkscape:locked="true" /><sodipodi:guide
       position="694.49997,315.20137"
       orientation="1,0"
       id="guide1275"
       inkscape:locked="true" /><sodipodi:guide
       position="713.99997,258.70137"
       orientation="0,-1"
       id="guide1343"
       inkscape:locked="true" /><sodipodi:guide
       position="694.49997,516.20136"
       orientation="0,-1"
       id="guide2175"
       inkscape:locked="true" /><sodipodi:guide
       position="769.99997,387.20136"
       orientation="1,0"
       id="guide2177"
       inkscape:locked="true" /><sodipodi:guide
       position="816.49996,312.20137"
       orientation="0,-1"
       id="guide2179"
       inkscape:locked="true" /><sodipodi:guide
       position="409.41481,426.71294"
       orientation="1,0"
       id="guide2523"
       inkscape:locked="true" /></sodipodi:namedview><g
     inkscape:groupmode="layer"
     id="layer3"
     inkscape:label="All"
     style="display:inline"
     transform="translate(47.000958,-0.16583654)"><path
       id="path5566"
       style="display:inline;fill:none;stroke:#000000;stroke-width:3.02362;stroke-dasharray:none"
       inkscape:label="border"
       d="m 357.65874,446.54862 c 60.66786,-1e-5 75.95433,-2e-5 136.1137,0 7.4755,0 13.49414,-6.74495 13.49414,-15.12305 V 79.142393 c 0,-8.378121 -6.01864,-15.123045 -13.49414,-15.123045 h -196.3658 m -82.82761,0 H 16.950209 c -7.4755187,0 -13.4941393,6.744924 -13.4941393,15.123045 V 431.42557 c 0,8.3781 6.0186206,15.12304 13.4941393,15.12305 56.384004,10e-6 76.204072,10e-6 137.854491,0"
       sodipodi:nodetypes="cssssccssssc" /><g
       id="g589"
       inkscape:label="encoder 4"
       transform="matrix(0.99999731,0,0,1,5.2087593,-29.598103)"
       style="display:inline"><path
         d="m 481.11938,424.02222 v -10 h 2.00001 v 10 z m 1.00001,7 c -2.23334,0 -4.12501,-0.775 -5.67502,-2.325 -1.55,-1.55 -2.325,-3.44167 -2.325,-5.675 0,-1.31667 0.30417,-2.55 0.9125,-3.7 0.60833,-1.15 1.45417,-2.1 2.5375,-2.85 l 1.45001,1.45 c -0.9,0.53333 -1.60834,1.25417 -2.12501,2.1625 -0.51667,0.90833 -0.775,1.8875 -0.775,2.9375 0,1.66667 0.58333,3.08333 1.75,4.25 1.16668,1.16667 2.58334,1.75 4.25002,1.75 1.66667,0 3.08333,-0.58333 4.25001,-1.75 1.16667,-1.16667 1.75,-2.58333 1.75,-4.25 0,-1.05 -0.25833,-2.02917 -0.775,-2.9375 -0.51667,-0.90833 -1.225,-1.62917 -2.12501,-2.1625 l 1.45001,-1.45 c 1.08333,0.75 1.92917,1.7 2.5375,2.85 0.60834,1.15 0.91251,2.38333 0.91251,3.7 0,2.23333 -0.77501,4.125 -2.32501,5.675 -1.55,1.55 -3.44168,2.325 -5.67501,2.325 z"
         id="path2428"
         style="display:inline;stroke-width:0.75590647;stroke:#000000;stroke-opacity:1;stroke-dasharray:none"
         sodipodi:nodetypes="cccccssssccsssssssccssss"
         inkscape:label="power" /><path
         d="m 531.11951,422.52222 -4.35001,6.15 q -0.275,0.4 -0.7125,0.625 -0.4375,0.225 -0.9375,0.225 h -10.00003 q -0.825,0 -1.4125,-0.5875 -0.5875,-0.5875 -0.5875,-1.4125 v -10 q 0,-0.825 0.5875,-1.4125 0.5875,-0.5875 1.4125,-0.5875 h 10.00003 q 0.5,0 0.9375,0.225 0.4375,0.225 0.7125,0.625 z m -2.45,0 -3.55001,-5 h -10.00003 v 10 h 10.00003 z m -13.55004,0 v 5 -10 z"
         id="path2010"
         style="display:inline;stroke:#000000;stroke-width:0.755906;stroke-dasharray:none;stroke-opacity:1"
         inkscape:label="right" /><ellipse
         style="display:inline;fill:#666666;fill-opacity:1;stroke:none;stroke-width:2.64569;stroke-dasharray:none;stroke-opacity:1"
         id="circle1604-2-30-6-8"
         cx="381.14606"
         cy="-502.11948"
         inkscape:label="zynthian-pot-right"
         transform="rotate(90)"
         rx="28.346376"
         ry="28.346529" /><circle
         style="display:inline;fill:#4d4d4d;fill-opacity:1;stroke:none;stroke-width:1.23465;stroke-dasharray:none;stroke-opacity:1"
         id="circle1604-2-3"
         cx="502.11948"
         cy="381.14606"
         inkscape:label="zynthian-pot-hole-right"
         r="13.228345" /></g><g
       id="g583"
       inkscape:label="encoder 3"
       transform="matrix(0.99999731,0,0,1,-69.709466,69.004847)"
       style="display:inline"><path
         d="m 550.53783,140.90429 q -2.3,0 -3.90001,-1.6 -1.6,-1.6 -1.6,-3.9 0,-2.30001 1.6,-3.9 1.60001,-1.6 3.90001,-1.6 0.925,0 1.77501,0.32499 0.85,0.325 1.525,0.92501 l 1.7,1.55 -1.5,1.35 -1.55,-1.4 q -0.4,-0.35 -0.90001,-0.55001 -0.5,-0.19999 -1.05,-0.19999 -1.45,0 -2.475,1.025 -1.02501,1.025 -1.02501,2.475 0,1.44999 1.02501,2.475 1.025,1.025 2.475,1.025 0.55,0 1.05,-0.2 0.50001,-0.2 0.90001,-0.55 l 7.75002,-7 q 0.675,-0.6 1.525,-0.92501 0.85,-0.32499 1.77501,-0.32499 2.3,0 3.90001,1.6 1.6,1.59999 1.6,3.9 0,2.3 -1.6,3.9 -1.60001,1.6 -3.90001,1.6 -0.92501,0 -1.77501,-0.325 -0.85,-0.325 -1.525,-0.925 l -1.70001,-1.55001 1.50001,-1.34999 1.55,1.4 q 0.4,0.35 0.9,0.55 0.5,0.2 1.05001,0.2 1.45,0 2.475,-1.025 1.025,-1.02501 1.025,-2.475 0,-1.45 -1.025,-2.475 -1.025,-1.025 -2.475,-1.025 -0.55001,0 -1.05001,0.19999 -0.5,0.2 -0.9,0.55001 l -7.75002,7 q -0.675,0.6 -1.525,0.925 -0.85001,0.325 -1.77501,0.325 z"
         id="path2650"
         style="display:inline;stroke:#000000;stroke-width:0.755906;stroke-dasharray:none;stroke-opacity:1"
         inkscape:label="loop" /><ellipse
         style="display:inline;fill:#666666;fill-opacity:1;stroke:none;stroke-width:2.6457;stroke-dasharray:none;stroke-opacity:1"
         id="circle1604-2-30-6-0-4"
         cx="94.028145"
         cy="-577.0379"
         inkscape:label="zynthian-pot-near-right"
         transform="rotate(90)"
         rx="28.346376"
         ry="28.346529" /><circle
         style="display:inline;fill:#4d4d4d;fill-opacity:1;stroke:none;stroke-width:1.23465;stroke-dasharray:none;stroke-opacity:1"
         id="circle1604-2-9"
         cx="577.0379"
         cy="94.028145"
         inkscape:label="zynthian-pot-hole-center-right"
         r="13.228345" /></g><g
       id="g578"
       inkscape:label="encoder 2"
       transform="matrix(0.99999731,0,0,1,-69.087809,65.098482)"
       style="display:inline"><path
         d="m 97.312626,144.21065 1.400003,-1.4 q 0.150001,-0.15 0.150001,-0.35 0,-0.2 -0.150001,-0.35 l -3.400008,-3.425 q 0.1,-0.275 0.15,-0.55 0.05,-0.275 0.05,-0.625 0,-1.425 -1.012502,-2.4375 -1.012503,-1.0125 -2.437507,-1.0125 -0.425001,0 -0.850002,0.1125 -0.425001,0.1125 -0.825002,0.3125 l 2.350006,2.35 -1.400004,1.4 -2.350006,-2.35 q -0.2,0.4 -0.312501,0.825 -0.1125,0.425 -0.1125,0.85 0,1.425 1.012503,2.4375 1.012502,1.0125 2.437506,1.0125 0.325001,0 0.612502,-0.05 0.2875,-0.05 0.562501,-0.15 l 3.425009,3.4 q 0.15,0.15 0.350001,0.15 0.2,0 0.350001,-0.15 z m -3.500009,5.1 q -2.075006,0 -3.90001,-0.7875 -1.825005,-0.7875 -3.175009,-2.1375 -1.350003,-1.35 -2.137505,-3.175 -0.787502,-1.825 -0.787502,-3.9 0,-2.075 0.787502,-3.9 0.787502,-1.825 2.137505,-3.175 1.350004,-1.35 3.175009,-2.1375 1.825004,-0.7875 3.90001,-0.7875 2.075005,0 3.90001,0.7875 1.825005,0.7875 3.175013,2.1375 1.35,1.35 2.1375,3.175 0.7875,1.825 0.7875,3.9 0,2.075 -0.7875,3.9 -0.7875,1.825 -2.1375,3.175 -1.350008,1.35 -3.175013,2.1375 -1.825005,0.7875 -3.90001,0.7875 z m 0,-2 q 3.350008,0 5.675015,-2.325 2.325008,-2.325 2.325008,-5.675 0,-3.35 -2.325008,-5.675 -2.325007,-2.325 -5.675015,-2.325 -3.350009,0 -5.675015,2.325 -2.325006,2.325 -2.325006,5.675 0,3.35 2.325006,5.675 2.325006,2.325 5.675015,2.325 z m 0,-8 z"
         id="path1590"
         style="display:inline;fill:#000000;fill-opacity:1;stroke-width:0.75590647;stroke:#000000;stroke-opacity:1;stroke-dasharray:none"
         inkscape:label="settings" /><ellipse
         style="display:inline;fill:#666666;fill-opacity:1;stroke:none;stroke-width:2.64569;stroke-dasharray:none;stroke-opacity:1"
         id="circle1604-2-30-6-0"
         cx="97.934509"
         cy="-73.812576"
         inkscape:label="zynthian-pot-near-left"
         transform="rotate(90)"
         rx="28.346376"
         ry="28.346529" /><circle
         style="display:inline;fill:#4d4d4d;fill-opacity:1;stroke:none;stroke-width:1.23465;stroke-dasharray:none;stroke-opacity:1"
         id="circle1604-2-1"
         cx="73.812576"
         cy="97.934509"
         inkscape:label="zynthian-pot-hole-center-left"
         r="13.228345" /></g><g
       id="g573"
       inkscape:label="encoder 1"
       style="display:inline"
       transform="matrix(0.99999731,0,0,1,-69.709466,65.098482)"><path
         d="m 87.221776,334.87288 h 3.000008 v -6 h 6.000015 v 6 h 3.000008 v -9 l -6.000015,-4.5 -6.000016,4.5 z m -2.000005,2 v -12 l 8.000021,-6 8.000018,6 v 12 h -7.000016 v -6 h -2.000005 v 6 z m 8.000021,-8.75 z"
         id="path3223"
         style="display:inline;stroke:#000000;stroke-width:0.755906;stroke-dasharray:none;stroke-opacity:1"
         inkscape:label="home" /><path
         d="m 44.221664,327.82564 4.350012,-6.15 q 0.275,-0.4 0.712501,-0.625 0.437501,-0.225 0.937503,-0.225 h 10.000026 q 0.825002,0 1.412503,0.5875 0.587502,0.5875 0.587502,1.4125 v 10 q 0,0.825 -0.587502,1.4125 -0.587501,0.5875 -1.412503,0.5875 H 50.22168 q -0.500002,0 -0.937503,-0.225 -0.437501,-0.225 -0.712501,-0.625 z m 2.450007,0 3.550009,5 h 10.000026 v -10 H 50.22168 Z m 13.550035,0 v -5 10 z"
         id="path2010-2"
         style="display:inline;stroke:#000000;stroke-width:0.755906;stroke-dasharray:none;stroke-opacity:1"
         inkscape:label="left" /><ellipse
         style="display:inline;fill:#666666;fill-opacity:1;stroke:none;stroke-width:2.64569;stroke-dasharray:none;stroke-opacity:1"
         id="circle1604-2-30-6"
         cx="-74.434235"
         cy="-286.19946"
         inkscape:label="zynthian-pot-left"
         transform="scale(-1)"
         rx="28.346529"
         ry="28.346453" /><circle
         style="display:inline;fill:#4d4d4d;fill-opacity:1;stroke:none;stroke-width:1.23465;stroke-dasharray:none;stroke-opacity:1"
         id="circle1604-2"
         cx="74.434235"
         cy="286.19946"
         inkscape:label="zynthian-pot-hole-left"
         r="13.228345" /></g><g
       inkscape:groupmode="layer"
       id="layer1"
       inkscape:label="zynthian"
       style="display:inline"
       transform="translate(0.24312594,0.16583654)"><rect
         style="display:inline;fill:#000000;stroke:#000000;stroke-width:3.77953"
         id="rect2607"
         width="400.62988"
         height="255.87399"
         x="54.803158"
         y="127.18111"
         inkscape:label="screen" /><path
         d="m 276.58229,94.705839 h -42.92865 c -3.88129,0 -7.02574,-3.71127 -7.02574,-8.2931 V 64.834912 h 6.94897 c 1.16218,0 1.2057,0.761347 1.2057,1.930066 v 5.842386 c 0,5.842384 6.9284,6.553567 6.9284,-0.05098 V 58.890583 c 0,-4.470586 4.0458,-4.064427 4.0458,0 V 80.17633 c 0,6.604949 7.40309,7.011109 7.40309,0 V 52.286448 c 0,-2.285659 1.95829,-2.387604 1.95829,-2.387604 0,0 1.95794,0.101952 1.95794,2.387604 V 80.17633 c 0,7.011109 7.40274,6.604949 7.40274,0 V 58.890583 c 0,-4.064427 4.04547,-4.470586 4.04547,0 v 13.665808 c 0,6.60454 6.92943,5.893357 6.92943,0.05098 v -5.842386 c 0,-1.168719 0.0429,-1.930065 1.20467,-1.930065 h 6.94963 v 21.577829 c 0,4.58183 -3.14409,8.29309 -7.02574,8.29309 M 233.65364,38.355664 h 42.92865 c 3.88165,0 7.02574,3.713284 7.02574,8.294713 v 16.05058 h -6.38997 c -2.9265,0 -3.57218,1.219288 -3.57218,4.826177 v 5.1312 c 0,3.14976 -3.35727,3.504947 -3.35727,0 V 58.83961 c 0,-7.213778 -7.66047,-6.959727 -7.66047,0 0,4.724638 0.0861,18.187366 0.0861,21.235584 0,3.911515 -3.83023,4.216535 -3.83023,0.05056 V 52.489527 c 0,-3.022732 -1.70024,-4.724639 -3.76578,-4.711287 -2.06627,-0.01335 -3.76648,1.688555 -3.76648,4.711287 v 27.636235 c 0,4.165967 -3.8299,3.860947 -3.8299,-0.05056 0,-3.048219 0.0858,-16.510947 0.0858,-21.235583 0,-6.959729 -7.6608,-7.21378 -7.6608,0 v 13.818723 c 0,3.504945 -3.35694,3.149759 -3.35694,0 V 67.52714 c 0,-3.606888 -0.64568,-4.826176 -3.57215,-4.826176 h -6.38967 V 46.650381 c 0,-4.581431 3.14445,-8.294715 7.02574,-8.294715 m 43.11133,-2.061137 h -43.29405 c -4.7422,0 -8.58923,4.538953 -8.58923,10.138208 v 40.195622 c 0,5.59966 3.84703,10.13861 8.58923,10.13861 h 43.29398 c 4.7429,0 8.58923,-4.53895 8.58923,-10.13861 V 46.432735 c 0,-5.599256 -3.84633,-10.138208 -8.58923,-10.138208"
         style="display:inline;fill:#000000;fill-opacity:1;fill-rule:nonzero;stroke:none;stroke-width:1.13386;stroke-dasharray:none;stroke-opacity:1"
         id="path899-7"
         inkscape:connector-curvature="0"
         inkscape:label="zynthian-logo"
         class="UnoptimicedTransforms"
         transform="matrix(1.4536888,0,0,1.3574518,-115.74422,-22.612917)" /></g><g
       style="display:inline;fill:#000000;fill-opacity:1;stroke:none;stroke-width:1.82848;stroke-dasharray:none;stroke-opacity:1"
       id="g1193"
       transform="matrix(1.5364629,0,0,-1.5745879,-315.29085,301.70792)"
       inkscape:label="zynthian"><g
         id="g1159"
         transform="matrix(0.20260356,0,0,0.20260356,336.84887,-109.45792)"
         style="fill:#000000;fill-opacity:1;stroke:none;stroke-width:9.02494;stroke-dasharray:none;stroke-opacity:1"><path
           d="M 0,0 H -39.312 V 6.295 H 0.204 c 8.323,0 10.96,1.012 15.015,5.07 4.057,3.855 5.281,7.504 5.281,13.799 v 7.708 h -31.807 c -9.736,0 -14.405,1.42 -19.684,6.09 -5.678,5.282 -8.321,11.568 -8.321,20.9 v 78.708 h 5.683 V 59.862 c 0,-7.503 2.438,-12.58 6.904,-16.435 3.85,-3.045 7.911,-4.662 15.418,-4.662 H 20.5 v 99.805 h 6.087 V 125.384 25.972 C 26.587,9.741 16.644,0 0,0"
           style="fill:#000000;fill-opacity:1;fill-rule:nonzero;stroke:none;stroke-width:9.02494;stroke-miterlimit:4;stroke-dasharray:none;stroke-opacity:1"
           id="path1157"
           inkscape:connector-curvature="0"
           class="UnoptimicedTransforms" /></g><g
         id="g1163"
         transform="matrix(0.20260356,0,0,0.20260356,359.89067,-102.79802)"
         style="fill:#000000;fill-opacity:1;stroke:none;stroke-width:9.02494;stroke-dasharray:none;stroke-opacity:1"><path
           d="m 0,0 v 80.535 c 0,12.582 -7.513,18.876 -22.729,18.876 h -10.555 c -15.222,0 -22.934,-6.294 -22.934,-18.876 V 0 h -5.683 v 80.331 c 0,16.639 9.132,25.367 28.617,25.367 h 10.555 c 20.089,0 28.821,-8.115 28.821,-25.367 L 6.092,0 Z"
           style="fill:#000000;fill-opacity:1;fill-rule:nonzero;stroke:none;stroke-width:9.02494;stroke-miterlimit:4;stroke-dasharray:none;stroke-opacity:1"
           id="path1161"
           inkscape:connector-curvature="0"
           class="UnoptimicedTransforms" /></g><g
         id="g1167"
         transform="matrix(0.20260356,0,0,0.20260356,430.09398,-102.79802)"
         style="fill:#000000;fill-opacity:1;stroke:none;stroke-width:9.02494;stroke-dasharray:none;stroke-opacity:1"><path
           d="m 0,0 v 80.535 c 0,12.582 -7.503,18.876 -22.729,18.876 h -10.548 c -15.227,0 -22.933,-6.294 -22.933,-18.876 V 0 h -5.685 v 80.331 c 0,16.639 9.131,25.367 28.618,25.367 h 10.548 c 20.09,0 28.821,-8.115 28.821,-25.367 L 6.092,0 Z"
           style="fill:#000000;fill-opacity:1;fill-rule:nonzero;stroke:none;stroke-width:9.02494;stroke-miterlimit:4;stroke-dasharray:none;stroke-opacity:1"
           id="path1165"
           inkscape:connector-curvature="0"
           class="UnoptimicedTransforms" /></g><g
         id="g1171"
         transform="matrix(0.20260356,0,0,0.20260356,367.03263,-82.656954)"
         style="fill:#000000;fill-opacity:1;stroke:none;stroke-width:9.02494;stroke-dasharray:none;stroke-opacity:1"><path
           d="m 0,0 v -99.411 h -6.525 v 44.203 93.565 H 0 V 6.287 H 28.207 V 0 Z"
           style="fill:#000000;fill-opacity:1;fill-rule:nonzero;stroke:none;stroke-width:9.02494;stroke-miterlimit:4;stroke-dasharray:none;stroke-opacity:1"
           id="path1169"
           inkscape:connector-curvature="0"
           class="UnoptimicedTransforms" /></g><g
         id="g1175"
         transform="matrix(0.20260356,0,0,0.20260356,386.59813,-102.79802)"
         style="fill:#000000;fill-opacity:1;stroke:none;stroke-width:9.02494;stroke-dasharray:none;stroke-opacity:1"><path
           d="M 0,0 V 75.865 C 0,92.708 -6.695,99.411 -23.54,99.411 H -52.642 V 0 h -6.522 v 44.204 93.564 h 6.522 v -32.07 h 25.853 c 24.357,0 33.074,-8.115 33.074,-29.628 L 6.285,0 Z"
           style="fill:#000000;fill-opacity:1;fill-rule:nonzero;stroke:none;stroke-width:9.02494;stroke-miterlimit:4;stroke-dasharray:none;stroke-opacity:1"
           id="path1173"
           inkscape:connector-curvature="0"
           class="UnoptimicedTransforms" /></g><g
         id="g1179"
         transform="matrix(0.20260356,0,0,0.20260356,411.4784,-89.318357)"
         style="fill:#000000;fill-opacity:1;stroke:none;stroke-width:9.02494;stroke-dasharray:none;stroke-opacity:1"><path
           d="m 0,0 h -35.533 c -1.012,0 -2.229,-0.204 -3.446,-0.408 -10.556,-1.624 -16.445,-8.523 -16.445,-19.684 v -20.462 c 0,-11.364 5.275,-17.652 17.255,-19.888 0.807,-0.197 2.031,-0.197 3.249,-0.197 h 15.837 C -6.696,-60.639 0,-53.536 0,-40.953 Z m 0,-58.614 c -4.664,-5.273 -10.346,-7.918 -19.28,-7.918 h -15.233 c -1.625,0 -3.249,0.203 -4.874,0.407 -14.002,2.238 -21.718,11.978 -21.718,25.172 v 20.658 c 0,16.034 9.945,25.978 25.978,25.978 H 0 v 6.491 c 0,13.398 -7.717,20.705 -20.904,20.705 h -40.201 v 6.287 h 36.951 c 20.297,0 30.445,-9.333 30.242,-28.004 V -39.542 C 6.088,-49.281 4.463,-53.74 0,-58.614"
           style="fill:#000000;fill-opacity:1;fill-rule:nonzero;stroke:none;stroke-width:9.02494;stroke-miterlimit:4;stroke-dasharray:none;stroke-opacity:1"
           id="path1177"
           inkscape:connector-curvature="0"
           class="UnoptimicedTransforms" /></g><g
         id="g1183"
         transform="matrix(0.20260356,0,0,0.20260356,312.91908,-102.80296)"
         style="fill:#000000;fill-opacity:1;stroke:none;stroke-width:9.02494;stroke-dasharray:none;stroke-opacity:1"><path
           inkscape:original-d="M 0,0"
           inkscape:path-effect="#path-effect1087"
           d="m 0,0 h 43.207 c 1.177,0 2.495,0 3.662,0.142 9.378,0.878 12.312,4.105 13.045,14.072 V 17 32.094 h -6.45 V 17.731 15.243 L 53.32,13.038 C 53.025,8.493 50.973,6.594 44.384,6.154 43.65,6.004 42.912,6.004 42.186,6.004 H 0.27 c 55.268,88.194 54.532,87.065 56.517,90.099 2.771,4.234 0.692,9.415 -4.54,9.415 H -7.081 v -6.011 h 58.054 c 0,0 -49.772,-80.075 -55.976,-89.818 C -8.235,4.61 -7.849,0 0,0 Z"
           id="path1089"
           style="fill:#000000"
           class="UnoptimicedTransforms" /><path
           d="m 0,0 h 43.207 c 1.177,0 2.495,0 3.662,0.142 9.378,0.878 12.312,4.105 13.045,14.072 V 17 32.094 h -6.45 V 17.731 15.243 L 53.32,13.038 C 53.025,8.493 50.973,6.594 44.384,6.154 43.65,6.004 42.912,6.004 42.186,6.004 H 0.27 c 55.268,88.194 54.532,87.065 56.517,90.099 2.771,4.234 0.692,9.415 -4.54,9.415 H -7.081 v -6.011 h 58.054 c 0,0 -49.772,-80.075 -55.976,-89.818 C -8.235,4.61 -7.849,0 0,0"
           style="fill:#000000;fill-opacity:1;fill-rule:nonzero;stroke:none;stroke-width:9.02494;stroke-miterlimit:4;stroke-dasharray:none;stroke-opacity:1"
           id="path1181"
           inkscape:connector-curvature="0"
           class="UnoptimicedTransforms"
           inkscape:path-effect="#path-effect1085"
           inkscape:original-d="m 0,0 h 43.207 c 1.177,0 2.495,0 3.662,0.142 9.378,0.878 12.312,4.105 13.045,14.072 V 17 32.094 h -6.45 V 17.731 15.243 L 53.32,13.038 C 53.025,8.493 50.973,6.594 44.384,6.154 43.65,6.004 42.912,6.004 42.186,6.004 H 0.27 c 55.268,88.194 54.532,87.065 56.517,90.099 2.771,4.234 0.692,9.415 -4.54,9.415 H -7.081 v -6.011 h 58.054 c 0,0 -49.772,-80.075 -55.976,-89.818 C -8.235,4.61 -7.849,0 0,0"
           inkscape:linked-fill="path1089" /></g><g
         id="g1187"
         transform="matrix(0.20260356,0,0,0.20260356,392.86261,-102.79802)"
         style="fill:#000000;fill-opacity:1;stroke:none;stroke-width:9.02494;stroke-dasharray:none;stroke-opacity:1"><path
           d="m 0,0 v 5.894 99.804 H 6.326 V 99.411 0 Z"
           style="fill:#000000;fill-opacity:1;fill-rule:nonzero;stroke:none;stroke-width:9.02494;stroke-miterlimit:4;stroke-dasharray:none;stroke-opacity:1"
           id="path1185"
           inkscape:connector-curvature="0"
           class="UnoptimicedTransforms" /></g><g
         id="g1191"
         transform="matrix(0.20260356,0,0,0.20260356,394.56337,-78.362713)"
         style="fill:#000000;fill-opacity:1;stroke:none;stroke-width:9.02494;stroke-dasharray:none;stroke-opacity:1"><path
           d="m 0,0 c 0,-2.891 -2.344,-5.234 -5.233,-5.234 -2.89,0 -5.234,2.343 -5.234,5.234 0,2.891 2.344,5.233 5.234,5.233 C -2.344,5.233 0,2.891 0,0"
           style="fill:#000000;fill-opacity:1;fill-rule:nonzero;stroke:none;stroke-width:9.02494;stroke-miterlimit:4;stroke-dasharray:none;stroke-opacity:1"
           id="path1189"
           inkscape:connector-curvature="0" /></g></g></g></svg>
